<svg width="1317" height="1498" viewBox="0 0 1317 1498" fill="none" xmlns="http://www.w3.org/2000/svg">
<path d="M780.5 676.5L780 677.5H778.5L778 678.5L774.5 679.5L767.5 686.5V688L766.5 688.5V690L764.5 691.5V693L763.5 693.5V696L761.5 698.5V701L760.5 701.5V704L759.5 704.5V708L758.5 708.5V712L757.5 712.5V717L756.5 717.5V724L755.5 724.5V732L754.5 732.5V751L755.5 751.5V762L756.5 762.5V768L757.5 768.5V773L758.5 773.5L759.5 781L760.5 781.5L761.5 787L762.5 787.5V789L763.5 789.5V791L764.5 791.5V793L765.5 793.5L766.5 797L769.5 799.5V801H771L774.5 805H776L776.5 806H779L779.5 807H788L788.5 806H790L791.5 804H793L798 799V797.5L800 796V794.5L801 794V792.5L802 792V790.5L803 790V788.5L805 786V783.5L806 783V780.5L807 780V776.5L808 776L809 766.5L810 766V760.5L811 760V750.5L812 750V735.5L811 735V724.5L810 724L809 712.5L808 712V708.5L807 708V705.5L806 705V702.5L805 702L804 696.5L803 696V694.5L802 694L801 690.5L798 688V686.5L796 685V683.5L794 681.5H792.5L790 678.5H788.5L788 677.5H785.5L785 676.5H780.5ZM1147.5 671.5L1147 672.5L1143.5 673.5L1138.5 678.5V680L1136.5 681.5V683L1135.5 683.5V685L1133.5 687.5V690L1132.5 690.5V693L1131.5 693.5V696L1130.5 696.5V700L1129.5 700.5V705L1128.5 705.5V712L1127.5 712.5V746L1128.5 746.5V752L1129.5 752.5V756L1130.5 756.5L1131.5 764L1132.5 764.5V766L1134.5 768.5V771L1136.5 772.5L1137.5 776L1139.5 777.5V779L1143.5 783H1145L1147.5 785H1154L1154.5 784L1158 783L1160 781V779.5L1163 777V775.5L1164 775V773.5L1165 773V771.5L1166 771V769.5L1168 767V764.5L1169 764V761.5L1170 761V758.5L1171 758V754.5L1172 754V748.5L1173 748V739.5L1174 739V717.5L1173 717V709.5L1172 709V703.5L1171 703V698.5L1170 698V694.5L1169 694V691.5L1168 691V689.5L1166 687V684.5L1165 684V682.5L1163 681V679.5L1161 678V676.5L1158 673.5H1156.5L1156 672.5H1153.5L1153 671.5H1147.5ZM607.5 711.5V715L606.5 715.5V721L607.5 721.5V726L608.5 726.5V730L609.5 730.5V733L611.5 735.5V738L613.5 740.5L614.5 746L615.5 746.5V748L616.5 748.5V750L617.5 750.5V752L619.5 754.5V757L620.5 757.5V759L621.5 759.5V761L623.5 763.5V766L625.5 767.5V769L627.5 770.5V772L628.5 772.5L629.5 776L631.5 777.5V779L633.5 780.5V782L635.5 783.5L636.5 787L639.5 789.5V791L641.5 792.5V794L645.5 797.5V799L653.5 806.5V808L661.5 816H663L670.5 824H672L675.5 828H677L678.5 830H680L681.5 832H683L687.5 836H689L689.5 837H691L692.5 839H694L694.5 840H696L696.5 841L700 842L701.5 844H704L704.5 845H706L706.5 846H708L710.5 848L716 849L716.5 850H718L718.5 851H721L723.5 853H726L726.5 854H730L732.5 856H736L736.5 857H741L741.5 858H745L745.5 859H751L751.5 860H759L759.5 861H771L771.5 862H796L796.5 861H809L809.5 860H815L815.5 859H821L821.5 858H827L827.5 857L835 856L835.5 855H838L838.5 854H841L841.5 853H844L844.5 852H847L847.5 851L853 850L853.5 849H855L855.5 848H858L860.5 846H863L863.5 845H865L865.5 844H867L867.5 843H869L869.5 842H871L871.5 841H873L873.5 840H875L875.5 839H877L877.5 838H879L879.5 837H881L881.5 836H883L883.5 835H885L885.5 834L889 833L890.5 831H892L893.5 829H895L896.5 827H898L899.5 825H901L902.5 823H904L907.5 819H909L911.5 816H913L917.5 811H919L927 803V801.5L930 799V797.5L932 796V794.5L933 794V780.5L932 780V776.5L931 776V773.5L930 773V770.5L929 770V766.5L928 766V763.5L927 763V760.5L926 760V756.5L925 756V753.5L924 753V750.5L923 750V747.5L922 747V744.5L921 744L920 738.5L918 736L917 730.5L916 730V728.5L914 726V723.5L913 723V721.5L912 721V719.5L911 719V717.5L910 717V715.5L909 715V713.5L908 713V711.5L907 711V709.5L906 709L905 705.5L903 704V702.5L902 702V700.5L900 699L899 695.5L897 694V692.5L894 690V688.5L892 687V685.5L889 683V681.5L885 678V676.5L865 656.5H863.5L860 652.5H858.5L856 649.5H854.5L852 646.5H850.5L849 644.5L845.5 643.5L844 641.5H842.5L842 640.5H840.5L840 639.5H838.5L838 638.5H836.5L834 636.5H831.5L831 635.5H829.5L827 633.5L821.5 632.5L819 630.5H816.5L816 629.5H813.5L813 628.5H810.5L810 627.5H807.5L807 626.5H803.5L803 625.5H797.5L797 624.5H792.5L792 623.5H782.5L782 622.5H751.5L751 623.5H742.5L742 624.5H735.5L735 625.5H729.5L729 626.5H725.5L725 627.5H722.5L722 628.5H717.5L717 629.5L711.5 630.5L709 632.5H705.5L703 634.5H700.5L700 635.5H698.5L696 637.5H693.5L691 639.5H688.5L688 640.5H686.5L686 641.5H684.5L684 642.5H682.5L682 643.5L678.5 644.5L677 646.5L673.5 647.5L672 649.5L668.5 650.5L667 652.5H665.5L664 654.5H662.5L661 656.5H659.5L658 658.5H656.5L654 661.5H652.5L648 666.5H646.5L643 670.5H641.5L621.5 690.5V692L617.5 695.5V697L613.5 700.5V702L609.5 706.5V708L608.5 708.5V711L607.5 711.5ZM649 719.5L671.5 697H673L676.5 693H678L680.5 690H682L684.5 687H686L687.5 685L691 684L692.5 682L696 681L697.5 679H699L699.5 678H701L701.5 677H703L703.5 676H705L705.5 675H707L707.5 674H709L711.5 672H714L716.5 670H719L719.5 669H722L722.5 668H726L726.5 667H730L730.5 666H734L734.5 665L744 664L744.5 663H751L751.5 662H767L767.5 661H773L773.5 662H786L786.5 663H791L791.5 664L799 665L799.5 666L805 667L807.5 669H810L812.5 671H815L815.5 672H817L817.5 673H819L819.5 674H821L821.5 675L825 676L829.5 680H831L833.5 683H835L838.5 687H840L854.5 701.5V703L858.5 706.5V708L860.5 709.5V711L862.5 712.5V714L864.5 715.5V717L866.5 718.5V720L870.5 724.5V726L871.5 726.5V728L872.5 728.5V730L873.5 730.5V732L874.5 732.5V734L875.5 734.5V736L877.5 738.5V741L878.5 741.5V743L880.5 745.5L881.5 751L883.5 753.5V756L884.5 756.5V759L885.5 759.5V762L886.5 762.5V765L887.5 765.5V768L888.5 768.5V772L889.5 772.5V775L890.5 775.5V779L891.5 779.5V781L884 788.5H882.5L881 790.5H879.5L877 793.5H875.5L874 795.5H872.5L868 799.5H866.5L866 800.5H864.5L864 801.5H862.5L862 802.5H860.5L860 803.5H858.5L858 804.5H856.5L856 805.5H854.5L854 806.5H852.5L852 807.5H850.5L848 809.5H845.5L845 810.5H843.5L841 812.5H838.5L838 813.5H835.5L835 814.5H832.5L832 815.5H829.5L829 816.5H825.5L825 817.5L817.5 818.5L817 819.5H812.5L812 820.5H805.5L805 821.5H795.5L795 822.5H777.5L777 821.5H763.5L763 820.5H756.5L756 819.5H751.5L751 818.5H746.5L746 817.5H742.5L742 816.5H739.5L739 815.5H736.5L736 814.5L730.5 813.5L730 812.5H728.5L726 810.5H723.5L723 809.5L719.5 808.5L718 806.5H716.5L716 805.5H714.5L714 804.5H712.5L712 803.5L708.5 802.5L707 800.5H705.5L704 798.5H702.5L701 796.5H699.5L697 793.5H695.5L688 785.5H686.5L685 784V782.5L677 775V773.5L673 770V768.5L670 766V764.5L668 763L667 759.5L665 758V756.5L664 756L663 752.5L661 751V749.5L660 749V747.5L659 747V745.5L658 745V743.5L657 743V741.5L655 739V736.5L654 736V734.5L653 734V732.5L651 730V727.5L650 727V724.5L649 724V719.5ZM462.5 4.5L462 5.5H460.5L459 7.5H457.5L455 10.5H453.5L452 12.5H450.5L448 15.5H446.5L445 17.5H443.5L441 20.5H439.5L438 22.5L434.5 23.5L433 25.5H431.5L430 27.5H428.5L427 29.5H425.5L424 31.5H422.5L420 34.5H418.5L416 37.5H414.5L412 40.5H410.5L407 44.5H405.5L403 47.5H401.5L399 50.5H397.5L396 52.5H394.5L389 58.5H387.5L384 62.5H382.5L380 65.5H378.5L376 68.5H374.5L371 72.5H369.5L366 76.5H364.5L359 82.5H357.5L353 87.5H351.5L345 94.5H343.5L337 101.5H335.5L321 116.5H319.5L273.5 162.5V164L262.5 174.5V176L253.5 184.5V186L246.5 192.5V194L241.5 198.5V200L237.5 203.5V205L232.5 209.5V211L229.5 213.5V215L225.5 218.5V220L222.5 222.5V224L217.5 228.5V230L215.5 231.5V233L210.5 237.5V239L206.5 242.5V244L203.5 246.5V248L200.5 250.5V252L197.5 254.5V256L194.5 258.5V260L191.5 262.5V264L188.5 266.5V268L185.5 270.5V272L183.5 273.5V275L181.5 276.5V278L178.5 280.5V282L176.5 283.5V285L174.5 286.5V288L171.5 290.5V292L169.5 293.5L168.5 297L166.5 298.5V300L163.5 302.5V304L161.5 305.5V307L159.5 308.5V310L157.5 311.5V313L155.5 314.5V316L151.5 320.5L150.5 324L146.5 328.5L145.5 332L141.5 336.5V338L140.5 338.5L139.5 342L137.5 343.5V345L136.5 345.5V347L134.5 348.5V350L133.5 350.5L132.5 354L130.5 355.5L129.5 359L127.5 360.5L126.5 364L124.5 365.5V367L123.5 367.5L122.5 371L120.5 372.5V374L119.5 374.5V376L118.5 376.5V378L117.5 378.5L116.5 382L114.5 383.5V385L113.5 385.5V387L112.5 387.5V389L111.5 389.5L110.5 393L108.5 394.5V396L107.5 396.5V398L106.5 398.5V400L105.5 400.5V402L104.5 402.5V404L103.5 404.5V406L102.5 406.5V408L101.5 408.5V410L100.5 410.5V412L99.5 412.5V414L98.5 414.5V416L97.5 416.5V418L96.5 418.5V420L95.5 420.5V422L94.5 422.5V424L93.5 424.5V426L91.5 428.5V431L90.5 431.5V433L89.5 433.5V435L88.5 435.5V437L87.5 437.5V439L85.5 441.5V444L84.5 444.5V446L83.5 446.5V448L82.5 448.5V450L81.5 450.5V452L79.5 454.5V457L78.5 457.5V459L77.5 459.5V461L75.5 463.5V466L73.5 468.5V471L71.5 473.5V476L70.5 476.5V478L68.5 480.5V483L67.5 483.5V485L65.5 487.5V490L64.5 490.5V492L63.5 492.5V495L61.5 497.5L60.5 503L58.5 505.5V508L57.5 508.5L56.5 514L54.5 516.5V519L53.5 519.5V522L52.5 522.5L51.5 528L49.5 530.5V533L48.5 533.5V536L47.5 536.5V539L46.5 539.5V542L45.5 542.5V545L44.5 545.5V548L43.5 548.5V551L42.5 551.5V554L41.5 554.5V558L40.5 558.5V561L39.5 561.5V564L38.5 564.5V568L37.5 568.5V571L36.5 571.5L35.5 579L33.5 581.5V586L32.5 586.5V589L31.5 589.5V593L30.5 593.5V597L29.5 597.5V601L28.5 601.5V605L27.5 605.5V609L26.5 609.5V613L25.5 613.5V618L24.5 618.5V622L23.5 622.5V627L22.5 627.5V632L21.5 632.5V636L20.5 636.5L19.5 646L18.5 646.5V650L17.5 650.5V655L16.5 655.5V661L15.5 661.5V666L14.5 666.5V671L13.5 671.5V677L12.5 677.5V683L11.5 683.5V691L10.5 691.5V698L9.5 698.5V706L8.5 706.5V713L7.5 713.5V723L6.5 723.5V732L5.5 732.5V744L4.5 744.5V756L3.5 756.5V773L2.5 773.5V844L3.5 844.5V864L4.5 864.5V878L5.5 878.5V887L6.5 887.5V896L7.5 896.5V905L8.5 905.5V912L9.5 912.5V920L10.5 920.5V926L11.5 926.5V932L12.5 932.5V939L13.5 939.5V944L14.5 944.5V951L15.5 951.5L16.5 961L17.5 961.5V965L18.5 965.5V970L19.5 970.5V974L20.5 974.5V979L21.5 979.5V983L22.5 983.5V988L23.5 988.5V992L24.5 992.5V996L25.5 996.5V1000L26.5 1000.5V1004L27.5 1004.5L28.5 1012L29.5 1012.5V1015L30.5 1015.5V1019L31.5 1019.5V1022L32.5 1022.5V1025L33.5 1025.5V1028L34.5 1028.5V1032L36.5 1034.5V1037L37.5 1037.5V1040L38.5 1040.5V1044L39.5 1044.5L40.5 1050L42.5 1052.5L43.5 1058L45.5 1060.5V1063L46.5 1063.5V1066L47.5 1066.5L48.5 1072L49.5 1072.5V1074L51.5 1076.5V1079L52.5 1079.5V1081L53.5 1081.5V1084L54.5 1084.5V1086L56.5 1088.5V1091L58.5 1093.5V1096L60.5 1098.5V1101L61.5 1101.5V1103L63.5 1105.5V1108L64.5 1108.5V1110L65.5 1110.5V1112L67.5 1114.5V1117L68.5 1117.5V1119L69.5 1119.5V1121L70.5 1121.5V1123L71.5 1123.5V1125L72.5 1125.5V1127L73.5 1127.5V1129L74.5 1129.5V1131L75.5 1131.5V1133L76.5 1133.5V1135L77.5 1135.5V1137L78.5 1137.5V1139L79.5 1139.5V1141L80.5 1141.5V1143L81.5 1143.5V1145L82.5 1145.5V1147L83.5 1147.5V1149L84.5 1149.5L85.5 1153L87.5 1154.5V1156L88.5 1156.5V1158L89.5 1158.5L90.5 1162L92.5 1163.5V1165L93.5 1165.5L94.5 1169L96.5 1170.5L97.5 1174L99.5 1175.5V1177L100.5 1177.5L101.5 1181L103.5 1182.5V1184L105.5 1185.5V1187L109.5 1191.5L110.5 1195L112.5 1196.5V1198L115.5 1200.5V1202L117.5 1203.5V1205L119.5 1206.5L120.5 1210L123.5 1212.5V1214L125.5 1215.5V1217L127.5 1218.5V1220L130.5 1222.5V1224L133.5 1226.5V1228L135.5 1229.5V1231L138.5 1233.5V1235L141.5 1237.5V1239L144.5 1241.5V1243L148.5 1246.5V1248L152.5 1251.5V1253L155.5 1255.5V1257L159.5 1260.5V1262L167.5 1269.5V1271L171.5 1274.5V1276L182.5 1286.5V1288L198.5 1303.5V1305L209.5 1316H211L214.5 1319.5V1321L216.5 1323H218L226.5 1332H228L236.5 1341H238L241.5 1345H243L247.5 1350H249L253.5 1355H255L258.5 1359H260L262.5 1362H264L267.5 1366H269L271.5 1369H273L275.5 1372H277L279.5 1375H281L282.5 1377H284L285.5 1379H287L288.5 1381H290L292.5 1384H294L295.5 1386L299 1387L300.5 1389H302L306.5 1393L310 1394L311.5 1396H313L314.5 1398H316L320.5 1402H322L322.5 1403L326 1404L327.5 1406H329L329.5 1407H331L332.5 1409H334L334.5 1410H336L336.5 1411L340 1412L341.5 1414H343L343.5 1415L347 1416L348.5 1418H350L350.5 1419H352L352.5 1420H354L354.5 1421H356L356.5 1422H358L358.5 1423H360L360.5 1424H362L362.5 1425H364L364.5 1426H366L366.5 1427H368L368.5 1428H370L372.5 1430H375L376.5 1432H379L379.5 1433H381L381.5 1434H383L383.5 1435H385L385.5 1436H387L389.5 1438H392L392.5 1439H394L394.5 1440H397L397.5 1441H399L401.5 1443H404L404.5 1444H406L408.5 1446H411L413.5 1448H416L416.5 1449H419L421.5 1451L427 1452L429.5 1454H432L432.5 1455H435L435.5 1456H438L438.5 1457H441L441.5 1458H444L444.5 1459H447L447.5 1460H451L451.5 1461H454L454.5 1462H457L457.5 1463H460L460.5 1464H463L463.5 1465H467L467.5 1466H470L470.5 1467H474L474.5 1468H477L477.5 1469H481L481.5 1470L489 1471L489.5 1472H492L492.5 1473H497L497.5 1474H501L501.5 1475L511 1476L511.5 1477H515L515.5 1478H520L520.5 1479H524L524.5 1480H530L530.5 1481H535L535.5 1482H540L540.5 1483H546L546.5 1484H553L553.5 1485L565 1486L565.5 1487H573L573.5 1488H581L581.5 1489H589L589.5 1490H599L599.5 1491H609L609.5 1492H620L620.5 1493H633L633.5 1494H650L650.5 1495H706L706.5 1494H730L730.5 1493H745L745.5 1492H757L757.5 1491H769L769.5 1490H779L779.5 1489H788L788.5 1488H796L796.5 1487L812 1486L812.5 1485H819L819.5 1484H826L826.5 1483H833L833.5 1482L845 1481L845.5 1480H849L849.5 1479H856L856.5 1478H860L860.5 1477H866L866.5 1476H870L870.5 1475H876L876.5 1474H881L881.5 1473H885L885.5 1472L895 1471L895.5 1470H899L899.5 1469H904L904.5 1468H909L909.5 1467H912L912.5 1466H917L917.5 1465L925 1464L925.5 1463H928L928.5 1462L936 1461L936.5 1460H939L939.5 1459L947 1458L947.5 1457H950L950.5 1456H954L954.5 1455H957L957.5 1454H961L961.5 1453H964L964.5 1452H967L967.5 1451H971L971.5 1450H974L974.5 1449H977L977.5 1448H980L980.5 1447H983L983.5 1446H987L987.5 1445H990L990.5 1444H993L993.5 1443H996L996.5 1442H999L999.5 1441H1003L1005.5 1439H1008L1008.5 1438H1012L1012.5 1437H1015L1017.5 1435H1020L1020.5 1434H1023L1023.5 1433L1029 1432L1029.5 1431H1031L1031.5 1430H1033L1033.5 1429H1035L1035.5 1428H1037L1037.5 1427H1039L1039.5 1426L1043 1425L1050 1418V1416.5L1052 1415V1412.5L1054 1410V1406.5L1055 1406V1398.5L1054 1398V1394.5L1053 1394V1391.5L1052 1391V1388.5L1051 1388V1385.5L1050 1385V1382.5L1049 1382V1378.5L1048 1378V1375.5L1047 1375V1371.5L1046 1371V1367.5L1045 1367V1363.5L1044 1363V1359.5L1043 1359V1355.5L1042 1355V1350.5L1041 1350V1344.5L1040 1344V1337.5L1039 1337V1325.5L1038 1325V1297.5L1039 1297V1286.5L1040 1286V1278.5L1041 1278V1273.5L1042 1273V1266.5L1043 1266V1263.5L1044 1263V1259.5L1045 1259L1046 1251.5L1047 1251V1248.5L1048 1248V1244.5L1049 1244V1241.5L1050 1241V1237.5L1051 1237V1234.5L1053 1232V1229.5L1054 1229V1226.5L1055 1226V1224.5L1057 1224L1057.5 1223H1059L1059.5 1222H1063L1063.5 1221H1066L1068.5 1219H1071L1071.5 1218H1074L1074.5 1217H1077L1077.5 1216H1080L1080.5 1215L1086 1214L1086.5 1213H1088L1090.5 1211H1093L1093.5 1210H1095L1095.5 1209H1097L1099.5 1207H1102L1102.5 1206H1104L1104.5 1205H1106L1106.5 1204H1108L1108.5 1203H1110L1110.5 1202H1112L1112.5 1201H1114L1114.5 1200H1116L1116.5 1199H1118L1118.5 1198H1120L1122.5 1196H1125L1126.5 1194H1128L1128.5 1193H1130L1130.5 1192L1134 1191L1135.5 1189H1137L1137.5 1188H1139L1139.5 1187H1141L1141.5 1186H1143L1143.5 1185L1147 1184L1148.5 1182H1150L1154.5 1178H1156L1156.5 1177H1158L1159.5 1175H1161L1163.5 1172L1167 1171L1168.5 1169H1170L1171.5 1167H1173L1175.5 1164H1177L1178.5 1162H1180L1184.5 1157H1186L1188.5 1154H1190L1193.5 1150H1195L1200.5 1144H1202L1207.5 1138H1209L1226 1121V1119.5L1237 1109V1107.5L1243 1102V1100.5L1246 1098V1096.5L1249 1094V1092.5L1253 1089V1087.5L1255 1086V1084.5L1257 1083V1081.5L1259 1080V1078.5L1261 1077V1075.5L1263 1074V1072.5L1265 1071V1069.5L1269 1065V1063.5L1270 1063V1061.5L1272 1060V1058.5L1273 1058L1274 1054.5L1276 1053V1051.5L1277 1051V1049.5L1278 1049V1047.5L1279 1047V1045.5L1280 1045V1043.5L1281 1043V1041.5L1282 1041V1039.5L1284 1037V1034.5L1285 1034V1032.5L1286 1032V1030.5L1288 1028V1025.5L1289 1025V1023.5L1290 1023V1020.5L1292 1018V1015.5L1293 1015L1294 1009.5L1296 1007V1004.5L1297 1004V1001.5L1298 1001V998.5L1299 998V995.5L1300 995V992.5L1301 992V988.5L1302 988V984.5L1303 984V980.5L1304 980V976.5L1305 976V971.5L1306 971V966.5L1307 966V961.5L1308 961V956.5L1309 956V950.5L1310 950V943.5L1311 943V935.5L1312 935V924.5L1313 924V911.5L1314 911V875.5L1313 875V860.5L1312 860V847.5L1311 847V835.5L1310 835V826.5L1309 826V818.5L1308 818V810.5L1307 810L1306 796.5L1305 796V790.5L1304 790V783.5L1303 783V778.5L1302 778V772.5L1301 772V767.5L1300 767L1299 757.5L1298 757V753.5L1297 753V749.5L1296 749V745.5L1295 745V740.5L1294 740V737.5L1293 737V733.5L1292 733L1291 725.5L1290 725V722.5L1289 722L1288 714.5L1287 714V711.5L1286 711V708.5L1285 708V705.5L1284 705V701.5L1283 701V698.5L1282 698V695.5L1281 695L1280 689.5L1278 687V683.5L1276 681V678.5L1275 678L1274 672.5L1272 670V667.5L1271 667L1270 661.5L1269 661V659.5L1268 659V656.5L1267 656V654.5L1266 654V652.5L1264 650L1263 644.5L1262 644V642.5L1261 642V640.5L1259 638V635.5L1258 635V633.5L1257 633V631.5L1256 631V629.5L1255 629V627.5L1254 627V625.5L1253 625V623.5L1252 623V621.5L1251 621V619.5L1250 619V617.5L1249 617V615.5L1248 615V613.5L1247 613V611.5L1246 611V609.5L1245 609V607.5L1244 607V605.5L1243 605V603.5L1242 603V601.5L1241 601V599.5L1240 599V597.5L1239 597V595.5L1238 595L1237 591.5L1235 590V588.5L1234 588V586.5L1232 585V583.5L1231 583L1230 579.5L1228 578L1227 574.5L1225 573V571.5L1223 570V568.5L1221 567V565.5L1219 564V562.5L1216 560V558.5L1213 556V554.5L1212 554V552.5L1211 552V550.5L1210 550V548.5L1209 548V546.5L1207 544V529.5L1206 529V515.5L1205 515V504.5L1204 504V492.5L1203 492V479.5L1202 479V469.5L1201 469V458.5L1200 458V445.5L1199 445V433.5L1198 433V422.5L1197 422V410.5L1196 410V398.5L1195 398V385.5L1194 385V374.5L1193 374V362.5L1192 362V348.5L1191 348V336.5L1190 336L1189 310.5L1188 310V298.5L1187 298V287.5L1186 287V275.5L1185 275V264.5L1184 264V252.5L1183 252V240.5L1182 240V225.5L1181 225V213.5L1180 213V200.5L1179 200V188.5L1178 188V173.5L1177 173V160.5L1176 160V145.5L1175 145V132.5L1174 132V117.5L1173 117V106.5L1172 106V94.5L1171 94V85.5L1170 85V81.5L1169 81V78.5L1168 78L1167 74.5L1165 73L1164 69.5L1161 66.5H1159.5L1158 64.5H1156.5L1154 62.5H1151.5L1149 60.5H1134.5L1134 61.5H1131.5L1131 62.5L1127.5 63.5L1126 65.5H1124.5L1122 68.5H1120.5L1095 94.5H1093.5L1082 106.5H1080.5L1070 117.5H1068.5L1048 138.5H1046.5L1037 148.5H1035.5L1016 168.5H1014.5L1008 175.5H1006.5L992 190.5H990.5L990 192.5H988.5L981 200.5H979.5L968 212.5H966.5L955 224.5H953.5L940 238.5H938.5L927 250.5H925.5L914 262.5H912.5V264L910.5 264.5V266L908.5 266.5L908 268.5H906.5L893 282.5H891.5L880 294.5H878.5V296L876 298.5H874.5L855 318.5H853.5L841 331.5H837.5L837 330.5H830.5L830 329.5L802.5 328.5L802 327.5H746.5L746 328.5H730.5L730 329.5H718.5L718 330.5H707.5L707 331.5H699.5L699 332.5H690.5L690 333.5H684.5L684 334.5H675.5L675 335.5H667.5L665 333L664 329.5L662 328V325.5L661 325V323.5L659 322V319.5L657 318V316.5L656 316V314.5L655 314V312.5L654 312V310.5L653 310V308.5L652 308V306.5L651 306V304.5L650 304V302.5L649 302V300.5L648 300V298.5L647 298L646 294.5L644 293V291.5L643 291V289.5L642 289V287.5L641 287V285.5L640 285V283.5L639 283V281.5L638 281L637 277.5L635 276V274.5L634 274V272.5L633 272V270.5L632 270V268.5L631 268V266.5L630 266V264.5L629 264V262.5L628 262L627 258.5L625 257V255.5L624 255V253.5L623 253V251.5L622 251V249.5L621 249V247.5L620 247V245.5L619 245V243.5L618 243V241.5L617 241V239.5L616 239L615 235.5L613 234V231.5L612 231L611 227.5L609 226V224.5L608 224V222.5L607 222V220.5L606 220V218.5L605 218V216.5L604 216V214.5L603 214V212.5L602 212V210.5L601 210V208.5L600 208V206.5L599 206V204.5L598 204V202.5L597 202L596 198.5L594 197V194.5L592 193V191.5L591 191V189.5L590 189V187.5L589 187V185.5L588 185V183.5L587 183V181.5L586 181L585 177.5L583 176V173.5L581 172V170.5L580 170V168.5L579 168V166.5L578 166V164.5L577 164V162.5L576 162V160.5L575 160V158.5L574 158V156.5L573 156L572 152.5L570 151V148.5L569 148V146.5L567 145V142.5L565 141V139.5L564 139V137.5L563 137V135.5L562 135V133.5L561 133V131.5L560 131L559 127.5L557 126V123.5L556 123V121.5L554 120V118.5L553 118V115.5L552 115V113.5L550 112V110.5L549 110V108.5L548 108V106.5L547 106V104.5L546 104V102.5L545 102V100.5L544 100V98.5L543 98L542 94.5L540 93V90.5L539 90V88.5L538 88L537 84.5L535 83V80.5L533 79V77.5L532 77V75.5L531 75L530 71.5L528 70V67.5L526 66V64.5L525 64L524 60.5L522 59V56.5L521 56V54.5L520 54V52.5L519 52L518 48.5L516 47V45.5L515 45V43.5L514 43V41.5L513 41V39.5L512 39V37.5L511 37V35.5L510 35V33.5L509 33V31.5L508 31V29.5L507 29V27.5L506 27V25.5L505 25V23.5L504 23V21.5L503 21L502 17.5L500 16V14.5L493 7.5H491.5L490 5.5H488.5L488 4.5L482.5 3.5L482 2.5H468.5L468 3.5L462.5 4.5ZM1162 654L1162.5 655H1167L1167.5 656L1173 657L1173.5 658H1175L1175.5 659L1179 660L1180.5 662H1182L1195.5 675.5V677L1197.5 678.5V680L1199.5 681.5V683L1203.5 687.5V689L1204.5 689.5V691L1206.5 693.5L1207.5 699L1208.5 699.5V703L1209.5 703.5V723L1208.5 723.5V732L1207.5 732.5V738L1206.5 738.5V742L1205.5 742.5V745L1204.5 745.5V749L1203.5 749.5V751L1201.5 753.5L1200.5 759L1199.5 759.5V761L1198.5 761.5V763L1197.5 763.5V765L1196.5 765.5L1195.5 769L1193.5 770.5L1192.5 774L1190.5 775.5V777L1188.5 778.5V780L1178 790.5H1176.5L1174 793.5H1172.5L1172 794.5H1170.5L1170 795.5H1168.5L1166 797.5H1163.5L1163 798.5H1158.5L1158 799.5H1150.5L1150 800.5H1147.5L1147 799.5H1139.5L1139 798.5L1131.5 797.5L1129 795.5H1126.5L1126 794.5H1124.5L1124 793.5H1122.5L1122 792.5H1120.5L1120 791.5H1118.5L1118 790.5L1114.5 789.5L1113 787.5H1111.5L1110 785.5H1108.5L1107 783.5H1105.5L1103 780.5H1101.5L1099 778V750.5L1100 750V741.5L1101 741V734.5L1102 734L1103 724.5L1104 724L1105 716.5L1106 716V713.5L1107 713V710.5L1108 710V706.5L1109 706L1110 700.5L1112 698V695.5L1113 695V693.5L1114 693V691.5L1115 691V689.5L1116 689V687.5L1117 687V685.5L1118 685L1119 681.5L1121 680V678.5L1123 677V675.5L1127 672L1127.5 670H1129V668.5L1133.5 664H1135L1137.5 661L1141 660L1142.5 658H1144L1144.5 657H1147L1149.5 655H1154L1154.5 654H1162ZM1117.5 147L1119.5 147.5V160L1120.5 160.5V168L1121.5 168.5V181L1122.5 181.5V191L1123.5 191.5V206L1124.5 206.5V215L1125.5 215.5V229L1126.5 229.5V242L1127.5 242.5V255L1128.5 255.5V267L1129.5 267.5V280L1130.5 280.5V291L1131.5 291.5V304L1132.5 304.5V315L1133.5 315.5V328L1134.5 328.5L1135.5 354L1136.5 354.5L1137.5 378L1138.5 378.5V387L1139.5 387.5V398L1140.5 398.5V411L1141.5 411.5V421L1142.5 421.5V432L1143.5 432.5V446L1144.5 446.5V456L1145.5 456.5V465L1146.5 465.5L1146 470.5L1143 468V466.5H1141.5L1138 462.5H1136.5L1131 456.5H1129.5L1124 450.5H1122.5L1119 446.5H1117.5L1114 442.5H1112.5L1107 436.5H1105.5L1101 431.5L1097.5 430.5L1094 426.5H1092.5L1090 423.5L1086.5 422.5L1083 418.5H1081.5L1077 414.5L1073.5 413.5L1069 409.5L1065.5 408.5L1065 406.5H1063.5L1063 405.5L1059.5 404.5L1058 402.5H1056.5L1056 401.5L1052.5 400.5L1051 398.5H1049.5L1049 397.5H1047.5L1047 396.5L1043.5 395.5L1042 393.5H1040.5L1040 392.5H1038.5L1038 391.5L1034.5 390.5L1033 388.5H1031.5L1031 387.5H1029.5L1029 386.5H1027.5L1027 385.5H1025.5L1025 384.5H1023.5L1023 383.5H1021.5L1021 382.5H1019.5L1019 381.5H1017.5L1017 380.5H1015.5L1015 379.5H1013.5L1011 377.5H1008.5L1008 376.5H1006.5L1006 375.5H1004.5L1004 374.5H1002.5L1000 372.5H997.5L997 371.5H995.5L993 369.5H990.5L990 368.5H988.5L986 366.5H983.5L981 364.5H978.5L978 363.5L972.5 362.5L972 361.5H970.5L970 360.5H967.5L965 358.5H961.5L961 357.5H958.5L958 356.5H955.5L955 355.5H952.5L952 354.5H949.5L949 353.5H946.5L946 352.5H942.5L942 351.5H939.5L939 350.5H936.5L936 349.5H932.5L932 348.5H928.5L928 347.5H924.5L924 346.5H920.5L920 345.5H916.5L916 344.5H912.5L912 343.5L910 343L931.5 321H933L944.5 309H946L963.5 291H965L978.5 277H980L995.5 261H997L997.5 259H999L1008.5 249H1010L1025.5 233H1027L1038.5 221H1040L1060.5 200H1062L1072.5 189H1074L1074.5 187H1076L1089.5 173H1091L1103.5 160H1105L1113.5 151H1115L1117.5 147ZM472.5 88L474.5 88.5V90L475.5 90.5V92L476.5 92.5V94L477.5 94.5V96L478.5 96.5V98L479.5 98.5V100L480.5 100.5V102L481.5 102.5L482.5 106L484.5 107.5V109L485.5 109.5V111L486.5 111.5L487.5 115L489.5 116.5V118L490.5 118.5V121L491.5 121.5V123L493.5 124.5V126L494.5 126.5V128L495.5 128.5V130L496.5 130.5L497.5 134L499.5 135.5V137L500.5 137.5V139L501.5 139.5V141L502.5 141.5V143L503.5 143.5V145L504.5 145.5V147L505.5 147.5V149L506.5 149.5V151L507.5 151.5V153L508.5 153.5V155L509.5 155.5V157L510.5 157.5V159L511.5 159.5V161L512.5 161.5V163L513.5 163.5L514.5 167L516.5 168.5V170L517.5 170.5V172L518.5 172.5V174L519.5 174.5V176L520.5 176.5V178L521.5 178.5V180L522.5 180.5V182L523.5 182.5V184L524.5 184.5V186L525.5 186.5V188L526.5 188.5V190L527.5 190.5L528.5 194L530.5 195.5V197L531.5 197.5V199L532.5 199.5V201L533.5 201.5V203L534.5 203.5L535.5 207L537.5 208.5V211L538.5 211.5V213L539.5 213.5V215L540.5 215.5L541.5 219L543.5 220.5V223L545.5 224.5V226L546.5 226.5V228L547.5 228.5V230L548.5 230.5V232L549.5 232.5V234L550.5 234.5L551.5 238L553.5 239.5V241L554.5 241.5V243L555.5 243.5V245L556.5 245.5V247L557.5 247.5V249L558.5 249.5V251L559.5 251.5L560.5 255L562.5 256.5V258L563.5 258.5V260L564.5 260.5V262L565.5 262.5V264L566.5 264.5V266L567.5 266.5V268L568.5 268.5V270L569.5 270.5V272L570.5 272.5L571.5 276L573.5 277.5V280L574.5 280.5V282L576.5 283.5V286L580.5 290.5V292L581.5 292.5V294L582.5 294.5V296L583.5 296.5V298L584.5 298.5V300L585.5 300.5V302L586.5 302.5V304L587.5 304.5V306L588.5 306.5L589.5 310L591.5 311.5V314L593.5 315.5V317L594.5 317.5L595.5 321L597.5 322.5V324L599.5 326.5V329L600.5 329.5L601.5 333L603.5 334.5V336L605.5 338.5V341L606.5 341.5V343L608.5 344.5V346L609.5 346.5V349L603.5 349.5L603 350.5H600.5L600 351.5L592.5 352.5L592 353.5H589.5L589 354.5H585.5L583 356.5H579.5L579 357.5L573.5 358.5L571 360.5H568.5L568 361.5H565.5L565 362.5H562.5L562 363.5H558.5L556 365.5H553.5L553 366.5H550.5L548 368.5L542.5 369.5L542 370.5H540.5L540 371.5H537.5L535 373.5L529.5 374.5L528 376.5H525.5L523 378.5H520.5L520 379.5H518.5L516 381.5H513.5L513 382.5H511.5L511 383.5H509.5L507 385.5H504.5L504 386.5H502.5L502 387.5H500.5L500 388.5H498.5L498 389.5H496.5L496 390.5H494.5L494 391.5H492.5L492 392.5H490.5L490 393.5H488.5L488 394.5H486.5L486 395.5H484.5L484 396.5H482.5L482 397.5H480.5L480 398.5H478.5L478 399.5L474.5 400.5L473 402.5H471.5L471 403.5H469.5L469 404.5H467.5L467 405.5L463.5 406.5L462 408.5H460.5L460 409.5L456.5 410.5L455 412.5H453.5L453 413.5L449.5 414.5L448 416.5H446.5L446 417.5L442.5 418.5L441 420.5H439.5L438 422.5H436.5L435 424.5H433.5L432 426.5H430.5L429 428.5H427.5L426 430.5H424.5L423 432.5H421.5L420 434.5H418.5L417 436.5H415.5L412 440.5H410.5L409 442.5H407.5L405 445.5H403.5L402 447.5H400.5L398 450.5H396.5L394 453.5H392.5L388 458.5H386.5L383 462.5H381.5L377 467.5H375.5L371 472.5H369.5L364 478.5H362.5L351 490.5H349.5L333.5 506.5V508L327.5 513.5V515L325.5 517.5V521L324.5 521.5V535L325.5 535.5V538L326.5 538.5V540L327.5 540.5L328.5 544L336.5 552H338L338.5 553H340L342.5 555H346L346.5 556H357L357.5 555H360L360.5 554H363L363.5 553H365L366.5 551H368L370.5 548H372L398.5 521H400L407.5 513H409L413.5 508H415L418.5 504H420L424.5 499H426L428.5 496H430L432.5 493H434L436.5 490H438L440.5 487H442L445.5 483H447L448.5 481H450L451.5 479H453L457.5 475L461 474L462.5 472H464L465.5 470H467L471.5 466L475 465L476.5 463H478L479.5 461H481L481.5 460L485 459L486.5 457L490 456L491.5 454H493L493.5 453H495L495.5 452H497L497.5 451H499L499.5 450H501L501.5 449H503L503.5 448L507 447L508.5 445H510L510.5 444H512L514.5 442H517L517.5 441H519L519.5 440H521L521.5 439H523L523.5 438H525L525.5 437H527L527.5 436H529L529.5 435H531L533.5 433H536L536.5 432H538L538.5 431H540L542.5 429H545L547.5 427H550L550.5 426H552L554.5 424H557L557.5 423H559L561.5 421L567 420L569.5 418H572L572.5 417H575L575.5 416H578L578.5 415H581L581.5 414H584L584.5 413H587L587.5 412H591L591.5 411H594L594.5 410H597L597.5 409H600L600.5 408H604L606.5 406H610L610.5 405H613L613.5 404H617L617.5 403H621L621.5 402H625L625.5 401H629L629.5 400H633L633.5 399H637L637.5 398H642L642.5 397H647L647.5 396H652L652.5 395H657L657.5 394H662L662.5 393H667L667.5 392H673L673.5 391H678L678.5 390H684L684.5 389H691L691.5 388H699L699.5 387H707L707.5 386H717L717.5 385H731L731.5 384H748L748.5 383L749.5 384H751L751.5 383H802L802.5 384H820L820.5 385H831L831.5 386H840L840.5 387H847L847.5 388H854L854.5 389H861L861.5 390H866L866.5 391H871L871.5 392H877L877.5 393H882L882.5 394H886L886.5 395H890L890.5 396H894L894.5 397L904 398L904.5 399H907L907.5 400H911L911.5 401H915L915.5 402H918L918.5 403H921L921.5 404H925L925.5 405H928L928.5 406H931L931.5 407H934L934.5 408H937L937.5 409H940L940.5 410H943L943.5 411H946L946.5 412L952 413L952.5 414H954L954.5 415H957L959.5 417L965 418L965.5 419H967L969.5 421H972L972.5 422H974L974.5 423H976L976.5 424H978L980.5 426H983L983.5 427H985L985.5 428H987L987.5 429H989L989.5 430H991L993.5 432H996L996.5 433H998L998.5 434H1000L1000.5 435H1002L1002.5 436H1004L1004.5 437L1008 438L1009.5 440H1011L1011.5 441L1015 442L1016.5 444L1020 445L1021.5 447L1025 448L1026.5 450H1028L1028.5 451H1030L1031.5 453L1035 454L1036.5 456H1038L1039.5 458H1041L1042.5 460H1044L1045.5 462H1047L1048.5 464H1050L1051.5 466H1053L1055.5 469H1057L1059.5 472H1061L1063.5 475H1065L1068.5 479H1070L1072.5 482H1074L1076.5 485H1078L1084.5 492H1086L1091.5 498H1093L1121.5 526.5V528L1123.5 528.5V530L1130.5 536.5V538L1136.5 543.5V545L1142.5 550.5V552L1145.5 554.5V556L1148.5 558.5V560L1150.5 561.5V563L1154.5 566.5V568L1157.5 570.5V572L1159.5 573.5V575L1162.5 577.5V579L1164.5 580.5V582L1167.5 584.5V586L1169.5 587.5V589L1171.5 590.5V592L1175.5 596.5V598L1176.5 598.5V600L1177.5 600.5L1178.5 604L1182.5 608.5L1183.5 612L1185.5 613.5V615L1186.5 615.5V617L1188.5 619.5L1188 620.5H1186.5L1186 619.5H1183.5L1183 618.5H1180.5L1180 617.5H1176.5L1176 616.5H1169.5L1169 615.5H1147.5L1147 616.5H1142.5L1142 617.5L1134.5 618.5L1134 619.5H1132.5L1132 620.5H1129.5L1129 621.5H1127.5L1127 622.5H1125.5L1125 623.5L1121.5 624.5L1120 626.5H1118.5L1116 629.5H1114.5L1111 633.5H1109.5L1096.5 646.5V648L1093.5 650.5V652L1091.5 653.5V655L1088.5 657.5V659L1086.5 660.5V662L1085.5 662.5V664L1084.5 664.5V666L1083.5 666.5V668L1082.5 668.5V670L1081.5 670.5V672L1080.5 672.5V674L1079.5 674.5V676L1078.5 676.5V678L1077.5 678.5V680L1075.5 682.5V685L1074.5 685.5V687L1073.5 687.5V689L1071.5 691.5V694L1070.5 694.5V698L1069.5 698.5V701L1068.5 701.5V705L1067.5 705.5V708L1066.5 708.5V713L1065.5 713.5V718L1064.5 718.5V723L1063.5 723.5V729L1062.5 729.5V735L1061.5 735.5V744L1060.5 744.5V758L1059.5 758.5V789L1060.5 789.5V793L1061.5 793.5L1062.5 797L1075.5 810H1077L1079.5 813H1081L1083.5 816H1085L1086.5 818H1088L1089.5 820H1091L1095.5 824H1097L1097.5 825H1099L1099.5 826H1101L1101.5 827H1103L1105.5 829H1108L1110.5 831H1113L1113.5 832H1116L1116.5 833H1119L1119.5 834H1122L1122.5 835H1125L1125.5 836H1130L1130.5 837H1135L1135.5 838H1144L1144.5 839H1159L1159.5 838H1166L1166.5 837H1172L1172.5 836H1175L1175.5 835L1181 834L1181.5 833H1183L1183.5 832H1185L1185.5 831H1187L1187.5 830H1189L1189.5 829H1191L1191.5 828L1195 827L1196.5 825H1198L1200.5 822H1202L1203.5 820H1205L1216 809V807.5L1221 803V801.5L1223 800V798.5L1227 794V792.5L1228 792V790.5L1229 790L1230 786.5L1232 785V783.5L1234 781V778.5L1235 778V776.5L1237 774V771.5L1238 771V768.5L1239 768V765.5L1240 765V761.5L1241.5 760L1242.5 760.5V765L1243.5 765.5V771L1244.5 771.5V777L1245.5 777.5V782L1246.5 782.5V786L1247.5 786.5V792L1248.5 792.5V798L1249.5 798.5V803L1250.5 803.5V808L1251.5 808.5V815L1252.5 815.5V822L1253.5 822.5V831L1254.5 831.5V840L1255.5 840.5V851L1256.5 851.5V863L1257.5 863.5V883L1258.5 883.5V906L1257.5 906.5V920L1256.5 920.5V929L1255.5 929.5V936L1254.5 936.5L1253.5 948L1252.5 948.5V953L1251.5 953.5V957L1250.5 957.5V962L1249.5 962.5L1248.5 970L1247.5 970.5V973L1246.5 973.5V977L1245.5 977.5V980L1244.5 980.5V984L1243.5 984.5V987L1242.5 987.5L1241.5 993L1239.5 995.5L1238.5 1001L1237.5 1001.5V1003L1235.5 1005.5V1008L1234.5 1008.5V1010L1233.5 1010.5V1012L1232.5 1012.5V1014L1231.5 1014.5V1016L1230.5 1016.5V1018L1229.5 1018.5V1020L1228.5 1020.5V1022L1227.5 1022.5V1024L1226.5 1024.5V1026L1225.5 1026.5V1028L1224.5 1028.5L1223.5 1032L1221.5 1033.5L1220.5 1037L1218.5 1038.5V1040L1216.5 1041.5V1043L1214.5 1044.5V1046L1212.5 1047.5V1049L1210.5 1050.5V1052L1208.5 1053.5V1055L1205.5 1057.5V1059L1202.5 1061.5V1063L1198.5 1066.5V1068L1193.5 1072.5V1074L1186.5 1080.5V1082L1177 1091.5H1175.5L1169 1098.5H1167.5L1162 1104.5H1160.5L1157 1108.5H1155.5L1151 1113.5H1149.5L1147 1116.5H1145.5L1143 1119.5H1141.5L1140 1121.5H1138.5L1136 1124.5H1134.5L1133 1126.5H1131.5L1127 1130.5L1123.5 1131.5L1119 1135.5H1117.5L1117 1136.5H1115.5L1114 1138.5H1112.5L1112 1139.5L1108.5 1140.5L1107 1142.5H1105.5L1105 1143.5H1103.5L1103 1144.5H1101.5L1101 1145.5H1099.5L1099 1146.5H1097.5L1097 1147.5H1095.5L1095 1148.5H1093.5L1093 1149.5H1091.5L1091 1150.5H1089.5L1087 1152.5H1084.5L1084 1153.5H1082.5L1082 1154.5H1080.5L1078 1156.5H1075.5L1075 1157.5H1073.5L1073 1158.5H1071.5L1069 1160.5H1066.5L1064 1162.5H1061.5L1059 1164.5H1056.5L1056 1165.5H1053.5L1053 1166.5H1050.5L1050 1167.5H1047.5L1047 1168.5H1044.5L1044 1169.5H1041.5L1041 1170.5H1038.5L1038 1171.5H1035.5L1035 1172.5H1032.5L1032 1173.5H1029.5L1029 1174.5H1025.5L1025 1175.5H1022.5L1022 1176.5H1018.5L1018 1177.5H1014.5L1014 1178.5H1010.5L1010 1179.5H1006.5L1006 1180.5H1002.5L1002 1181.5H997.5L997 1182.5L987.5 1183.5L987 1184.5H983.5L983 1185.5H976.5L976 1186.5H969.5L969 1187.5H962.5L962 1188.5H954.5L954 1189.5H945.5L945 1190.5H933.5L933 1191.5H918.5L918 1192.5H889.5L889 1193.5L881.5 1194.5L881 1195.5L877.5 1196.5L874 1200.5H872.5L870.5 1202.5V1204L868.5 1205.5V1207L866.5 1209.5V1212L865.5 1212.5V1217L864.5 1217.5V1223L865.5 1223.5V1228L866.5 1228.5V1230L867.5 1230.5V1232L868.5 1232.5L869.5 1236L872.5 1238.5V1240H874L877.5 1244H879L881.5 1246H884L884.5 1247H888L888.5 1248H921L921.5 1247H941L941.5 1246H951L951.5 1245H961L961.5 1244H970L970.5 1243L982 1242L982.5 1241H987L987.5 1240L991.5 1240.5V1243L990.5 1243.5V1247L989.5 1247.5V1251L988.5 1251.5V1256L987.5 1256.5V1261L986.5 1261.5V1268L985.5 1268.5V1276L984.5 1276.5V1284L983.5 1284.5V1297L982.5 1297.5V1324L983.5 1324.5V1339L984.5 1339.5V1347L985.5 1347.5V1355L986.5 1355.5V1361L987.5 1361.5V1366L988.5 1366.5V1372L989.5 1372.5L989 1376.5H985.5L985 1377.5H971.5L971 1378.5H936.5L936 1379.5H927.5L927 1378.5H895.5L895 1377.5H884.5L884 1376.5H871.5L871 1375.5H862.5L862 1374.5H854.5L854 1373.5H845.5L845 1372.5H840.5L840 1371.5H832.5L832 1370.5H825.5L825 1369.5L813.5 1368.5L813 1367.5H809.5L809 1366.5H804.5L804 1365.5H798.5L798 1364.5H794.5L794 1363.5H790.5L790 1362.5L780.5 1361.5L780 1360.5H777.5L777 1359.5H772.5L772 1358.5H768.5L768 1357.5H764.5L764 1356.5H760.5L760 1355.5L752.5 1354.5L752 1353.5H749.5L749 1352.5H746.5L746 1351.5H742.5L742 1350.5H739.5L739 1349.5H736.5L736 1348.5H732.5L730 1346.5H726.5L726 1345.5H723.5L723 1344.5H720.5L720 1343.5H716.5L716 1342.5H713.5L711 1340.5H708.5L708 1339.5H705.5L705 1338.5H702.5L702 1337.5L696.5 1336.5L694 1334.5L688.5 1333.5L688 1332.5H686.5L684 1330.5L678.5 1329.5L678 1328.5H676.5L674 1326.5H671.5L669 1324.5H666.5L666 1323.5H664.5L664 1322.5H662.5L662 1321.5H660.5L658 1319.5H655.5L655 1318.5H653.5L653 1317.5H651.5L651 1316.5H649.5L649 1315.5H647.5L647 1314.5H645.5L645 1313.5H643.5L643 1312.5H641.5L641 1311.5H639.5L639 1310.5H637.5L637 1309.5H635.5L635 1308.5H633.5L633 1307.5H631.5L631 1306.5H629.5L629 1305.5L625.5 1304.5L624 1302.5H621.5L620 1300.5H618.5L618 1299.5H616.5L616 1298.5H614.5L614 1297.5L610.5 1296.5L609 1294.5L605.5 1293.5L604 1291.5H602.5L602 1290.5L598.5 1289.5L597 1287.5L593.5 1286.5L592 1284.5H590.5L586 1280.5L582.5 1279.5L578 1275.5L574.5 1274.5L572 1271.5H570.5L569 1269.5H567.5L566 1267.5H564.5L563 1265.5H561.5L559 1262.5H557.5L556 1260.5H554.5L552 1257.5H550.5L548 1254.5H546.5L545 1252.5H543.5L541 1249.5H539.5L537 1246.5H535.5L533 1243.5H531.5L529 1240.5H527.5L524 1236.5H522.5L519 1232.5H517.5L513 1227.5H511.5L505 1220.5H503.5L496 1212.5H494.5L480 1197.5H478.5L471 1190V1188.5L448 1166V1164.5L446 1164V1162.5L441 1158V1156.5L435 1151V1149.5L430 1145V1143.5L426 1140V1138.5L423 1136V1134.5L419 1131V1129.5L415 1126V1124.5L412 1122V1120.5L409 1118V1116.5L406 1114V1112.5L403 1110L402 1106.5L399 1104V1102.5L397 1101V1099.5L395 1098V1096.5L393 1095V1093.5L391 1092V1090.5L389 1089V1087.5L387 1086V1084.5L384 1082L383 1078.5L381 1077V1075.5L380 1075V1073.5L378 1072L377 1068.5L373 1064V1062.5L372 1062L371 1058.5L367 1054V1052.5L366 1052V1050.5L365 1050V1048.5L364 1048L363 1044.5L361 1043V1041.5L360 1041L359 1037.5L357 1036V1034.5L356 1034V1032.5L355 1032V1030.5L354 1030L353 1026.5L351 1025V1023.5L350 1023V1021.5L349 1021V1019.5L348 1019V1017.5L347 1017V1015.5L346 1015V1013.5L344 1011V1008.5L343 1008V1006.5L342 1006V1004.5L341 1004V1002.5L340 1002V1000.5L339 1000V998.5L338 998V996.5L337 996V994.5L336 994V992.5L334 990V987.5L333 987V985.5L331 983V980.5L330 980V978.5L328 976V973.5L326 971V968.5L325 968V966.5L323 964V961.5L321 959L320 953.5L319 953V951.5L318 951V948.5L316 946V943.5L315 943V940.5L314 940V937.5L313 937V934.5L312 934V931.5L311 931V928.5L310 928V925.5L309 925V922.5L308 922V919.5L307 919V916.5L306 916V913.5L305 913V910.5L304 910V907.5L303 907V904.5L302 904V900.5L301 900V897.5L300 897V893.5L299 893V889.5L298 889V885.5L297 885V881.5L296 881V877.5L295 877V873.5L294 873V869.5L293 869V864.5L292 864V860.5L291 860V855.5L290 855V851.5L289 851V847.5L288 847V843.5L287 843V838.5L286 838V833.5L285 833V828.5L284 828V822.5L283 822V816.5L282 816V810.5L281 810V803.5L280 803V795.5L279 795V787.5L278 787V777.5L277 777V768.5L276 768V756.5L275 756V746.5L274 746V731.5L273 731V663.5L274 663V643.5L275 643V631.5L276 631V621.5L277 621V612.5L278 612L279 594.5L280 594V586.5L281 586V579.5L282 579V573.5L283 573V566.5L284 566V560.5L285 560V553.5L286 553V548.5L287 548V542.5L288 542V537.5L289 537V531.5L290 531V527.5L291 527L292 517.5L293 517V513.5L294 513V508.5L295 508V504.5L296 504L297 494.5L298 494V490.5L299 490V486.5L300 486V482.5L301 482V478.5L302 478V474.5L303 474L304 466.5L305 466V463.5L306 463V460.5L307 460V456.5L308 456V453.5L309 453V450.5L310 450V446.5L311 446V442.5L312 442V439.5L313 439V435.5L314 435V432.5L315 432V429.5L316 429V425.5L317 425V422.5L319 420V416.5L320 416V413.5L321 413V410.5L322 410V407.5L323 407V404.5L324 404L325 398.5L327 396V392.5L328 392V389.5L329 389V386.5L330 386L331 380.5L333 378V375.5L334 375L335 369.5L336 369V367.5L338 365L339 359.5L340 359V357.5L341 357V354.5L343 352L344 346.5L346 344L347 338.5L349 336V333.5L350 333V330.5L352 328V325.5L354 323V320.5L355 320V318.5L356 318V316.5L357 316V314.5L359 312L360 306.5L361 306V304.5L362 304V301.5L363 301V299.5L365 297V294.5L367 292V289.5L368 289V287.5L369 287V285.5L370 285V283.5L371 283V281.5L373 279V276.5L374 276V274.5L375 274V272.5L376 272V270.5L377 270V268.5L379 266V263.5L380 263V261.5L381 261V259.5L382 259V257.5L383 257V255.5L384 255V253.5L385 253V251.5L386 251V249.5L388 247V244.5L389 244V242.5L390 242V240.5L391 240V238.5L393 236V233.5L395 232V229.5L396 229V227.5L397 227V225.5L398 225V223.5L399 223V221.5L400 221L401 217.5L403 216V214.5L404 214V212.5L405 212V210.5L406 210V208.5L407 208V206.5L408 206V204.5L409 204V202.5L410 202V200.5L411 200V198.5L412 198L413 194.5L415 193V190.5L417 189V187.5L418 187V185.5L419 185V183.5L420 183L421 179.5L423 178V176.5L424 176V173.5L426 172V170.5L427 170V168.5L428 168V166.5L429 166V164.5L430 164L431 160.5L433 159V157.5L434 157L435 153.5L437 152V150.5L438 150V148.5L439 148V146.5L440 146L441 142.5L443 141V139.5L444 139V137.5L445 137L446 133.5L448 132V129.5L450 128V126.5L452 125L453 121.5L455 120V118.5L457 116V113.5L461 109L462 105.5L464 104V101.5L465 101V99.5L469 95V93.5L470 93V91.5L472 90L472.5 88Z" fill="black" stroke="black" stroke-width="5" stroke-linejoin="round"/>
</svg>
